<?xml version="1.0" encoding="UTF-8" standalone="no"?>
<!-- Created with Inkscape (http://www.inkscape.org/) -->

<svg
   width="210mm"
   height="297mm"
   viewBox="0 0 210 297"
   version="1.1"
   id="svg5"
   inkscape:version="1.1.2 (b8e25be833, 2022-02-05)"
   sodipodi:docname="Chapter03.svg"
   xmlns:inkscape="http://www.inkscape.org/namespaces/inkscape"
   xmlns:sodipodi="http://sodipodi.sourceforge.net/DTD/sodipodi-0.dtd"
   xmlns="http://www.w3.org/2000/svg"
   xmlns:svg="http://www.w3.org/2000/svg">
  <sodipodi:namedview
     id="namedview7"
     pagecolor="#ffffff"
     bordercolor="#666666"
     borderopacity="1.0"
     inkscape:pageshadow="2"
     inkscape:pageopacity="0.0"
     inkscape:pagecheckerboard="0"
     inkscape:document-units="mm"
     showgrid="false"
     inkscape:zoom="0.7198092"
     inkscape:cx="396.63288"
     inkscape:cy="558.48133"
     inkscape:window-width="1920"
     inkscape:window-height="1001"
     inkscape:window-x="-9"
     inkscape:window-y="-9"
     inkscape:window-maximized="1"
     inkscape:current-layer="layer1" />
  <defs
     id="defs2">
    <inkscape:path-effect
       effect="skeletal"
       id="path-effect366"
       is_visible="true"
       lpeversion="1"
       pattern="M 0,4.9921382 C 0,2.2364779 2.2364779,0 4.9921382,0 c 2.7556604,0 4.9921383,2.2364779 4.9921383,4.9921382 0,2.7556604 -2.2364779,4.9921383 -4.9921383,4.9921383 C 2.2364779,9.9842765 0,7.7477986 0,4.9921382 Z"
       copytype="single_stretched"
       prop_scale="1"
       scale_y_rel="false"
       spacing="0"
       normal_offset="0"
       tang_offset="0"
       prop_units="false"
       vertical_pattern="false"
       hide_knot="false"
       fuse_tolerance="0" />
    <inkscape:path-effect
       effect="spiro"
       id="path-effect364"
       is_visible="true"
       lpeversion="1" />
    <inkscape:path-effect
       effect="skeletal"
       id="path-effect360"
       is_visible="true"
       lpeversion="1"
       pattern="M 0,4.9921382 C 0,2.2364779 2.2364779,0 4.9921382,0 c 2.7556604,0 4.9921383,2.2364779 4.9921383,4.9921382 0,2.7556604 -2.2364779,4.9921383 -4.9921383,4.9921383 C 2.2364779,9.9842765 0,7.7477986 0,4.9921382 Z"
       copytype="single_stretched"
       prop_scale="1"
       scale_y_rel="false"
       spacing="0"
       normal_offset="0"
       tang_offset="0"
       prop_units="false"
       vertical_pattern="false"
       hide_knot="false"
       fuse_tolerance="0" />
    <inkscape:path-effect
       effect="spiro"
       id="path-effect358"
       is_visible="true"
       lpeversion="1" />
    <inkscape:path-effect
       effect="skeletal"
       id="path-effect354"
       is_visible="true"
       lpeversion="1"
       pattern="M 0,4.9921382 C 0,2.2364779 2.2364779,0 4.9921382,0 c 2.7556604,0 4.9921383,2.2364779 4.9921383,4.9921382 0,2.7556604 -2.2364779,4.9921383 -4.9921383,4.9921383 C 2.2364779,9.9842765 0,7.7477986 0,4.9921382 Z"
       copytype="single_stretched"
       prop_scale="1"
       scale_y_rel="false"
       spacing="0"
       normal_offset="0"
       tang_offset="0"
       prop_units="false"
       vertical_pattern="false"
       hide_knot="false"
       fuse_tolerance="0" />
    <inkscape:path-effect
       effect="spiro"
       id="path-effect352"
       is_visible="true"
       lpeversion="1" />
    <inkscape:path-effect
       effect="skeletal"
       id="path-effect348"
       is_visible="true"
       lpeversion="1"
       pattern="M 0,4.9921382 C 0,2.2364779 2.2364779,0 4.9921382,0 c 2.7556604,0 4.9921383,2.2364779 4.9921383,4.9921382 0,2.7556604 -2.2364779,4.9921383 -4.9921383,4.9921383 C 2.2364779,9.9842765 0,7.7477986 0,4.9921382 Z"
       copytype="single_stretched"
       prop_scale="1"
       scale_y_rel="false"
       spacing="0"
       normal_offset="0"
       tang_offset="0"
       prop_units="false"
       vertical_pattern="false"
       hide_knot="false"
       fuse_tolerance="0" />
    <inkscape:path-effect
       effect="spiro"
       id="path-effect346"
       is_visible="true"
       lpeversion="1" />
    <inkscape:path-effect
       effect="skeletal"
       id="path-effect342"
       is_visible="true"
       lpeversion="1"
       pattern="M 0,4.9921382 C 0,2.2364779 2.2364779,0 4.9921382,0 c 2.7556604,0 4.9921383,2.2364779 4.9921383,4.9921382 0,2.7556604 -2.2364779,4.9921383 -4.9921383,4.9921383 C 2.2364779,9.9842765 0,7.7477986 0,4.9921382 Z"
       copytype="single_stretched"
       prop_scale="1"
       scale_y_rel="false"
       spacing="0"
       normal_offset="0"
       tang_offset="0"
       prop_units="false"
       vertical_pattern="false"
       hide_knot="false"
       fuse_tolerance="0" />
    <inkscape:path-effect
       effect="spiro"
       id="path-effect340"
       is_visible="true"
       lpeversion="1" />
    <inkscape:path-effect
       effect="skeletal"
       id="path-effect336"
       is_visible="true"
       lpeversion="1"
       pattern="M 0,4.9921382 C 0,2.2364779 2.2364779,0 4.9921382,0 c 2.7556604,0 4.9921383,2.2364779 4.9921383,4.9921382 0,2.7556604 -2.2364779,4.9921383 -4.9921383,4.9921383 C 2.2364779,9.9842765 0,7.7477986 0,4.9921382 Z"
       copytype="single_stretched"
       prop_scale="1"
       scale_y_rel="false"
       spacing="0"
       normal_offset="0"
       tang_offset="0"
       prop_units="false"
       vertical_pattern="false"
       hide_knot="false"
       fuse_tolerance="0" />
    <inkscape:path-effect
       effect="spiro"
       id="path-effect334"
       is_visible="true"
       lpeversion="1" />
    <inkscape:path-effect
       effect="skeletal"
       id="path-effect330"
       is_visible="true"
       lpeversion="1"
       pattern="M 0,4.9921382 C 0,2.2364779 2.2364779,0 4.9921382,0 c 2.7556604,0 4.9921383,2.2364779 4.9921383,4.9921382 0,2.7556604 -2.2364779,4.9921383 -4.9921383,4.9921383 C 2.2364779,9.9842765 0,7.7477986 0,4.9921382 Z"
       copytype="single_stretched"
       prop_scale="1"
       scale_y_rel="false"
       spacing="0"
       normal_offset="0"
       tang_offset="0"
       prop_units="false"
       vertical_pattern="false"
       hide_knot="false"
       fuse_tolerance="0" />
    <inkscape:path-effect
       effect="spiro"
       id="path-effect328"
       is_visible="true"
       lpeversion="1" />
    <inkscape:path-effect
       effect="skeletal"
       id="path-effect324"
       is_visible="true"
       lpeversion="1"
       pattern="M 0,4.9921382 C 0,2.2364779 2.2364779,0 4.9921382,0 c 2.7556604,0 4.9921383,2.2364779 4.9921383,4.9921382 0,2.7556604 -2.2364779,4.9921383 -4.9921383,4.9921383 C 2.2364779,9.9842765 0,7.7477986 0,4.9921382 Z"
       copytype="single_stretched"
       prop_scale="1"
       scale_y_rel="false"
       spacing="0"
       normal_offset="0"
       tang_offset="0"
       prop_units="false"
       vertical_pattern="false"
       hide_knot="false"
       fuse_tolerance="0" />
    <inkscape:path-effect
       effect="spiro"
       id="path-effect322"
       is_visible="true"
       lpeversion="1" />
    <inkscape:path-effect
       effect="skeletal"
       id="path-effect285"
       is_visible="true"
       lpeversion="1"
       pattern="M 0,4.9921382 C 0,2.2364779 2.2364779,0 4.9921382,0 c 2.7556604,0 4.9921383,2.2364779 4.9921383,4.9921382 0,2.7556604 -2.2364779,4.9921383 -4.9921383,4.9921383 C 2.2364779,9.9842765 0,7.7477986 0,4.9921382 Z"
       copytype="single_stretched"
       prop_scale="1"
       scale_y_rel="false"
       spacing="0"
       normal_offset="0"
       tang_offset="0"
       prop_units="false"
       vertical_pattern="false"
       hide_knot="false"
       fuse_tolerance="0" />
    <inkscape:path-effect
       effect="spiro"
       id="path-effect283"
       is_visible="true"
       lpeversion="1" />
    <inkscape:path-effect
       effect="spiro"
       id="path-effect246"
       is_visible="true"
       lpeversion="1" />
  </defs>
  <g
     inkscape:label="Layer 1"
     inkscape:groupmode="layer"
     id="layer1">
    <path
       style="fill:#000000;stroke:none;stroke-width:0.264583px;stroke-linecap:butt;stroke-linejoin:miter;stroke-opacity:1"
       d="m -58.811882,27.935642 c 1.58456,-0.675178 8.044361,6.802207 9.377134,21.143611 0.257922,2.822057 0.289937,5.481322 0.327429,8.307956 0.02404,1.71943 0.05421,3.60454 0.06577,5.442436 0.01658,0.111828 0.02862,0.234949 0.03537,0.36913 0.04794,0.952285 -0.170852,2.436612 -0.881197,4.338562 -0.580289,1.298396 -0.890188,1.50938 -0.426239,0.530633 0,0 0,-6e-6 0,-6e-6 0.02335,-0.886868 0.153967,-0.926501 0.107362,0.06559 -0.06595,2.991337 -0.884148,5.205309 -1.794199,6.659626 -0.795883,1.586089 -1.483016,2.495386 -1.624904,3.066447 -0.11019,0.453903 -0.351956,1.83489 -1.314588,3.907128 -0.643027,1.061307 -2.191811,2.881105 -1.566234,1.877732 -0.01227,-0.226975 -0.05054,-0.0496 -0.215181,0.424963 -0.102543,0.51811 -0.343079,1.343205 -0.811898,2.380795 -0.718325,1.265297 -1.453335,2.030366 -2.055428,2.455324 -0.43011,0.358217 -0.701106,0.496473 -0.778028,0.522911 -0.04065,0.0315 -0.103995,-0.154843 -0.07725,-0.488459 -0.04818,-0.193601 -0.06289,-0.06592 -0.109468,0.319912 -0.219725,2.314031 -1.396841,3.965968 -2.582726,4.913316 0,0 -2e-6,0 -2e-6,0 -3.046895,2.406258 -4.823238,0.604705 -4.865084,0.29333 -0.105709,-0.786585 1.177253,-1.745394 1.508037,-3.170799 0,0 0,0 0,0 0.147954,-0.604031 0.145517,-1.377219 -0.134065,-1.914634 -0.05528,-0.09518 -0.116849,-0.458874 -0.109468,-1.150383 0.12465,-1.202412 0.481059,-2.221249 1.010356,-2.929897 0.470874,-0.690902 0.835904,-1.127945 1.074959,-1.446547 0.237123,-0.418872 0.352832,-0.590542 0.150017,-0.485268 -0.06372,0.122228 -0.140924,-0.04515 -0.07767,-0.56007 -0.0062,-0.505514 0.115535,-1.344111 0.520894,-2.515358 0.877607,-1.860698 1.615984,-2.695586 1.374354,-2.533158 -0.04879,0.369045 -0.196877,-0.443474 0.155714,-1.974062 0.52841,-2.307988 1.325079,-3.986012 1.91256,-5.220354 0.377967,-1.173428 0.762372,-1.883846 0.549521,-1.961989 -0.09114,-0.02921 -0.150597,-0.981497 0.107361,-2.874995 0,0 10e-7,-1.1e-5 10e-7,-1.1e-5 0.709335,-2.024646 1.165505,-2.722621 1.044061,-2.409963 -0.06404,0.503293 -0.199276,0.472671 -0.144712,-0.151928 0.0074,-0.08523 0.01857,-0.180802 0.03404,-0.28642 -0.0074,-1.886375 0.0077,-3.737932 0.06578,-5.584788 0.08874,-2.886416 0.271791,-5.498297 0.327429,-7.865314 0.302867,-11.927971 -2.083139,-20.683994 -0.179802,-21.495003 z"
       id="path320"
       inkscape:path-effect="#path-effect322;#path-effect324"
       inkscape:original-d="m -58.811882,27.935642 c 1.656461,7.074376 3.977535,14.110914 4.778468,21.319307 0.290258,2.612342 0,5.441749 0,8.086635 0,1.790007 0.220911,3.74632 0,5.513612 -0.107463,0.859692 -0.225145,1.718429 -0.367575,2.57302 -0.09008,0.540494 -0.645067,0.929807 -0.73515,1.470298 -0.08057,0.483431 0.08767,0.988102 0,1.470297 -0.495729,2.726513 -1.748025,6.069074 -2.940592,8.454208 -0.436391,0.872781 -0.347676,2.165646 -0.735151,2.940595 -0.397973,0.795946 -1.08966,1.444172 -1.470294,2.205445 -0.359739,0.719473 -0.529831,2.11932 -0.735151,2.940595 -0.222432,0.889727 -0.553476,0.737968 -1.102722,1.470294 -0.385307,0.513745 -1.280382,1.635702 -1.470297,2.205448 -0.07749,0.232474 0.10959,0.515969 0,0.735147 -0.466122,0.932247 -3.674674,4.409824 -4.41089,5.14604" />
    <path
       style="fill:#000000;stroke:none;stroke-width:0.264583px;stroke-linecap:butt;stroke-linejoin:miter;stroke-opacity:1"
       d="m -49.041544,62.829643 c 0.187236,0.218132 0.882251,1.880749 -1.357713,2.240735 -0.853879,0.122049 -1.983516,-0.08249 -2.920429,-1.145029 -0.720733,-0.852499 -1.176703,-2.056252 -0.876204,-3.530137 0.286774,-1.262242 1.059335,-2.440107 2.484089,-3.165207 1e-6,1e-6 3e-6,-10e-7 3e-6,-10e-7 0.737503,-0.332514 1.403104,-0.527663 1.934643,-0.570365 0.491054,-0.05928 0.874694,-0.09161 1.111075,-0.118062 0.321914,-0.07636 0.623942,-0.155751 0.881428,-0.247873 1.998249,-0.405054 4.302997,-0.636091 6.756307,-0.636091 7.632978,0 13.827859,2.236478 13.827859,4.992138 0,2.75566 -6.194881,4.992138 -13.827859,4.992138 -2.45331,0 -4.758058,-0.231037 -6.756307,-0.636091 -0.635484,-0.09252 -1.201902,-0.228922 -1.703551,-0.38941 -0.203237,-0.07127 -0.250158,-0.144596 -0.181007,-0.197823 0.08705,-0.03644 0.319589,-0.171598 0.665664,-0.349067 0,0 10e-7,-10e-7 10e-7,-10e-7 0.684759,-0.43106 0.92485,-0.989507 0.988118,-1.589767 0.04082,-0.697197 -0.274248,-1.102961 -0.63999,-1.370472 -0.482147,-0.319221 -0.896063,-0.142636 -1.119271,0.06979 -0.591715,0.596297 0.407287,1.270969 0.733144,1.650597 z"
       id="path326"
       inkscape:path-effect="#path-effect328;#path-effect330"
       inkscape:original-d="m -49.041544,62.829643 c -0.438708,-0.726631 -1.376008,-1.333209 -1.316128,-2.179892 0.0605,-0.855535 1.715347,0 2.57302,0 6.861384,0 13.722771,0 20.584157,0" />
    <path
       style="fill:#000000;stroke:none;stroke-width:0.264583px;stroke-linecap:butt;stroke-linejoin:miter;stroke-opacity:1"
       d="m -25.730198,36.757424 c 1.437422,0.659372 0.436062,5.415025 0.959168,11.996164 0.162594,2.034018 0.663333,5.597215 0.367066,9.237811 -0.246108,2.481853 -0.791048,4.633234 -0.996428,6.352684 -0.0645,1.213725 -0.154132,2.304995 -0.0076,2.985445 0.04405,0.204503 0.109164,0.374375 0.201839,0.507113 0.137889,0.186464 0.594549,1.148581 1.050831,2.948061 0.17106,1.335195 0.136302,2.302289 0.0079,2.893271 0,0 -1e-6,3e-6 -1e-6,3e-6 -0.06277,0.583339 -0.142194,0.838079 -0.12335,0.694009 0.07423,-0.177422 -0.142169,-0.596438 -0.551352,-1.341292 -0.24747,-0.364269 -0.633853,-0.680419 -1.161983,-0.976495 -0.550928,-0.305556 -1.205134,-0.419418 -1.9912,-0.371453 -0.200468,0.02214 -0.101916,0.01188 0.29422,-0.01899 0,0 1.6e-5,-2e-6 1.6e-5,-2e-6 0.408778,-0.07533 1.09739,0.01726 2.056051,0.286423 1.030958,0.399006 1.816159,0.972868 2.352478,1.709276 0,0 1.9e-5,2.6e-5 1.9e-5,2.6e-5 0.524103,0.722852 0.844658,1.43094 0.965479,2.116571 0,0 4e-6,2.5e-5 4e-6,2.5e-5 0.16275,1.363558 0.08465,2.316491 -0.193492,2.854762 -0.198886,0.535651 -0.274198,0.682189 -0.202815,0.474924 0,0 1e-6,-4e-6 1e-6,-4e-6 0.152735,-0.209044 0.189198,-0.816483 0.147702,-1.819637 -0.177081,-0.827341 -0.39302,-1.386929 -0.665371,-1.691515 -0.243331,-0.302777 -0.344728,-0.427696 -0.321045,-0.370592 0.04337,0.04101 0.231034,0.2518 0.547206,0.638263 0,0 7e-6,8e-6 7e-6,8e-6 0.344736,0.383701 0.672003,1.02575 0.964287,1.9182 0.229398,1.538822 0.222188,2.36619 0.07182,2.500487 0.109417,0.117382 -0.0014,-0.443621 -0.239426,-1.673627 -0.569167,-1.06295 -0.928899,-1.589584 -1.151286,-1.59423 0,0 -10e-7,-10e-7 -10e-7,-10e-7 -0.104019,-0.08906 0.198495,0.164042 0.844314,0.784189 0.660535,0.777459 1.060754,1.491973 1.22695,2.120301 0.178979,0.61728 0.261279,1.06356 0.274552,1.340226 0.154869,0.536902 -0.04201,0.383742 -0.350216,-0.372153 -0.630646,-0.627039 -0.573677,-0.676158 -0.101948,-0.112734 0.291076,0.245802 0.666626,0.679615 1.093975,1.299193 0.465278,0.642846 0.7471,1.55117 0.825863,2.679319 0,0 0,1.1e-5 0,1.1e-5 -0.02493,0.698486 -0.06617,0.992167 -0.08783,0.90988 0.06792,-0.09487 -0.02565,-0.550991 -0.235823,-1.358688 -0.248639,-0.550476 -0.484663,-0.916428 -0.720403,-1.10796 -0.220917,-0.193928 -0.328841,-0.2803 -0.336784,-0.258065 0.051,-0.02464 0.497038,0.41315 1.235511,1.31429 0.442469,0.757676 0.66225,1.384147 0.689063,1.871141 0.04674,0.476926 0.0473,0.756744 0.02403,0.851944 0,0 0,1e-6 0,1e-6 -5.38e-4,0.09445 -0.0419,0.0018 -0.101202,-0.263263 -0.0442,-0.291823 -0.276625,-0.680406 -0.667366,-1.176705 -0.518158,-0.461928 -0.842827,-0.684103 -1.020409,-0.676337 0,0 -1e-6,0 -1e-6,0 -0.146949,-0.02712 -0.03449,0.02493 0.301795,0.175958 1.098524,0.547406 1.840406,1.25363 2.293422,1.994475 0.484494,0.779035 0.740454,1.47459 0.859237,2.059498 0.283811,1.233702 0.181899,2.176674 0.183388,2.494391 -0.109545,1.273458 0.840833,2.485507 0.57848,3.252133 -0.09861,0.288141 -2.148153,1.800468 -4.567569,-1.158763 -0.71021,-0.916513 -1.217821,-1.970079 -1.628259,-2.446486 -0.188428,-0.193623 -0.326165,-0.303635 -0.408358,-0.238483 -0.07362,0.07987 -0.02534,0.191896 0.226623,0.411551 0.07907,0.05138 -0.07485,0.03084 -0.482007,-0.102872 0,0 -5e-6,-2e-6 -5e-6,-2e-6 -0.431501,-0.09649 -1.006116,-0.458969 -1.706899,-1.132655 -0.557391,-0.689519 -0.891987,-1.322048 -0.993352,-1.866943 -0.115695,-0.514644 -0.17138,-0.863741 -0.182441,-1.028926 0,0 -1e-6,-2e-6 -1e-6,-2e-6 -0.03373,-0.159863 -0.03975,-0.137643 -0.03594,0.08378 -0.01551,0.235646 0.124807,0.610309 0.421113,1.154618 0.538252,0.610073 0.689814,0.859092 0.450988,0.62138 -0.148805,-0.08081 -0.395886,-0.275665 -0.738238,-0.597101 -0.356095,-0.317913 -0.695545,-0.830501 -1.004722,-1.546308 -0.294635,-1.03839 -0.385165,-1.748708 -0.293112,-2.091024 0.0021,-0.328486 0.0041,-0.276608 -0.03054,0.171926 0,0 0,7e-6 0,7e-6 0.06294,0.72956 0.18956,1.250493 0.427053,1.556928 0.203494,0.288928 0.28864,0.439713 0.271007,0.42178 -0.130414,0.049 -0.769735,-0.461439 -1.820764,-1.788676 -0.712219,-1.432745 -0.994054,-2.365094 -0.967665,-2.627965 -0.04829,-0.108421 -0.03841,-0.04986 0.01027,0.194577 0.03755,0.260447 0.249869,0.619236 0.638388,1.110872 0.403047,0.365331 0.410496,0.431294 0.02772,0.121439 0,0 -5e-6,-4e-6 -5e-6,-4e-6 -0.495906,-0.221329 -1.117267,-1.006816 -1.804984,-2.401777 -0.362223,-1.577573 -0.42534,-2.523729 -0.258314,-2.774884 -0.09405,-0.231394 -0.03759,0.217167 0.09071,1.3963 0.231669,0.677063 0.441176,1.122949 0.646252,1.330179 0,0 5e-6,4e-6 5e-6,4e-6 0.17704,0.210664 0.20479,0.264635 0.0899,0.145106 -0.133329,-0.102232 -0.390324,-0.390436 -0.760781,-0.87875 -0.398731,-0.489056 -0.712838,-1.257559 -0.920586,-2.307621 -0.07812,-1.269194 0.01939,-2.147626 0.262562,-2.611349 0,0 3e-6,-8e-6 3e-6,-8e-6 0.162187,-0.463163 0.203525,-0.553963 0.09004,-0.277752 -0.194433,0.283378 -0.223352,0.960644 -0.116271,2.06009 0,0 4e-6,2e-5 4e-6,2e-5 0.0931,0.5541 0.359623,1.135093 0.801251,1.751313 0,0 1.6e-5,2.2e-5 1.6e-5,2.2e-5 0.454086,0.630092 1.128059,1.118504 2.031772,1.473013 0.842088,0.228395 1.404501,0.315188 1.689704,0.247559 0,0 1.1e-5,-10e-7 1.1e-5,-10e-7 0.272218,-0.02314 0.249907,-0.01286 -0.07458,0.01988 -1.254547,0.08794 -2.387999,-0.136214 -3.357895,-0.665054 -0.943245,-0.517304 -1.685688,-1.16267 -2.208154,-1.913837 -0.952433,-1.509242 -1.385019,-2.891441 -1.33556,-4.021997 -0.0078,-1.067949 0.06473,-1.779632 0.114212,-2.127736 0,0 0,-2e-6 0,-2e-6 -0.017,-0.347748 0.02662,-0.322606 0.02679,0.06974 0.231831,0.533146 -0.03027,0.282649 -0.419463,-0.727679 -0.297338,-0.756835 -0.532551,-1.509811 -0.710607,-2.253778 -0.603825,-2.52295 -0.528551,-4.837597 -0.100524,-6.767448 0.474533,-2.631892 1.160915,-4.584712 1.479276,-6.128585 0.573337,-2.436277 0.599031,-5.477889 1.102216,-8.40575 1.461254,-8.536952 5.670059,-12.065428 6.840356,-11.528592 z"
       id="path332"
       inkscape:path-effect="#path-effect334;#path-effect336"
       inkscape:original-d="m -25.730198,36.757424 c -1.097967,3.948547 -1.633865,7.842192 -2.940594,11.762378 -0.466246,1.398741 -0.05496,6.94609 -0.367575,8.821782 -0.555495,3.332975 -1.419127,9.077619 -0.735147,12.497525 0.709773,3.548864 0.04204,-3.013864 0.735147,1.83787 0.22261,1.558255 0.557353,3.409047 1.470297,4.778465 0.06797,0.101946 0.31278,-0.109588 0.367575,0 0.219179,0.438359 -0.154982,1.00535 0,1.470297 0.711185,2.13355 -0.352544,-2.160352 0.735148,1.102723 0.125504,0.37651 -0.251005,0.349705 0,1.102722 0.10959,0.328769 0.580166,0.425183 0.735149,0.73515 0.333428,0.666853 0.510169,1.530506 0.735149,2.205445 0.491657,1.47497 0.379504,0.0199 1.470297,1.837873 0.126077,0.210126 -0.10959,0.515969 0,0.735147 0.154983,0.309965 0.542916,0.446799 0.735148,0.735147 0.364887,0.547331 -0.339026,0.763699 0.367575,1.470298 0.193728,0.193728 0.541419,0.173847 0.735148,0.367575 1.025323,1.025321 1.454218,3.292089 2.57302,4.41089 0.496732,0.496734 2.57302,1.523865 2.57302,2.205447" />
    <path
       style="fill:#000000;stroke:none;stroke-width:0.264583px;stroke-linecap:butt;stroke-linejoin:miter;stroke-opacity:1"
       d="m -11.762376,34.551979 c 0.270579,-1.312148 2.4076668,-2.046788 5.4679645,-2.606622 2.7605342,-0.504997 7.4556993,-1.035199 11.5786731,-1.605581 0,-1e-6 1.4e-6,0 1.4e-6,0 0.3374445,-0.06937 0.8283297,-0.130611 1.4737122,-0.148176 0.4684104,-0.01275 1.0127929,-0.0023 1.6309057,0.04338 0.7495016,0.0711 1.5744551,0.296029 2.4498631,0.683678 0.901975,0.395565 1.752764,1.050948 2.515743,1.947173 0.199519,0.245404 0.208587,0.272916 0.04548,0.0809 -0.144569,-0.228506 -0.575724,-0.542746 -1.282911,-0.956327 -0.81524,-0.340629 -1.439084,-0.490341 -1.887948,-0.443915 0,0 -7e-6,0 -7e-6,0 -0.4314969,0.02531 -0.6382885,0.04197 -0.6261501,0.06259 0,0 2e-7,0 2e-7,0 0.023779,-0.138801 0.9327839,-0.139629 2.6629619,0.08774 0,0 1.3e-5,5e-6 1.3e-5,5e-6 1.584017,0.604802 2.543935,1.27405 2.912047,1.94318 0,0 3e-6,5e-6 3e-6,5e-6 0.422074,0.56785 0.514792,0.747481 0.351876,0.547543 -0.518135,-0.509974 -0.919727,-0.747245 -1.303315,-0.770651 -0.36275,-0.01949 -0.513285,0.0037 -0.52393,0.09221 0.015,0.222944 0.708184,0.0024 1.809654,-0.185703 6.396761,-1.310862 9.324016,1.789404 9.115225,3.066441 -0.262866,1.607785 -3.433377,2.519297 -6.322911,4.536733 -0.513661,0.397019 -1.562805,1.02175 -3.458823,1.487653 C 13.939306,42.617627 12.842619,42.61946 11.576483,42.3314 10.325168,42.049712 9.0907678,41.313458 7.9949018,40.062444 7.612006,39.580523 7.5329998,39.460441 7.7259416,39.748177 c 0,0 1.2e-6,3e-6 1.2e-6,3e-6 0.1451252,0.397282 0.8226495,0.820684 2.0625919,1.334699 0,0 1.02e-5,4e-6 1.02e-5,4e-6 1.3742491,0.132979 1.8980021,0.215425 1.5551411,0.143921 0,0 -3e-6,10e-7 -3e-6,10e-7 -0.170835,0.05373 -0.563086,0.09911 -1.181532,0.123141 0,0 -10e-6,10e-7 -10e-6,10e-7 C 9.527344,41.395095 8.7144925,41.213309 7.7319552,40.789301 6.8686764,40.297925 6.3054883,39.864061 6.0443233,39.50477 5.7644179,39.181717 5.6725493,39.068932 5.7593745,39.178725 c 0.3484572,0.397511 0.6558212,0.662041 0.9580896,0.784347 0.2846119,0.118443 0.467383,0.18706 0.5624885,0.184972 0.075545,-0.0154 0.069575,-0.0085 -0.012577,0.0068 -0.116179,0.02152 -0.3801166,0.05911 -0.7892624,0.07968 0,0 -1.7e-6,0 -1.7e-6,0 -11.2216465,1.189441 -18.7480897,-3.220937 -18.2404877,-5.682503 z"
       id="path338"
       inkscape:path-effect="#path-effect340;#path-effect342"
       inkscape:original-d="m -11.762376,34.551979 c 5.9372546,-0.205967 11.81248635,0.08725 17.6435642,0.73515 1.2418697,0.137986 2.4903511,0.340017 3.6757424,0.735148 0.1643843,0.05479 0.1994717,0.325549 0.3675742,0.367575 0.3565992,0.08915 0.7461232,-0.08915 1.1027232,0 0.336205,0.08405 0.40638,0.625557 0.735148,0.735147 1.359256,0.453086 3.697067,0 5.14604,0 1.086045,0 7.719059,0.59182 7.719059,-0.735147" />
    <path
       style="fill:#000000;stroke:none;stroke-width:0.264583px;stroke-linecap:butt;stroke-linejoin:miter;stroke-opacity:1"
       d="m 7.7259415,39.748176 c 1.989476,0.101018 3.2096065,6.402478 4.4610085,15.165105 0.222471,1.437704 0.447999,3.317156 0.306064,5.554459 -0.23684,2.915519 -1.006666,5.022433 -0.886861,6.116976 0.0013,0.123947 0.01106,0.329866 0.0163,0.619224 0.0069,0.378888 0.0057,0.894364 -0.03206,1.546447 -0.380307,2.905861 -1.144203,4.390667 -1.262008,4.88393 -0.286357,0.553541 -0.0732,1.947001 -0.03249,3.706918 0,0 0,3e-6 0,3e-6 0.25278,2.047009 0.05562,4.560701 -0.9497362,7.124043 -1.1578367,2.462764 -2.1980084,3.090765 -2.4257564,3.41667 -0.1244625,0.148213 -0.3885729,0.176902 -0.533155,0.105602 -0.1099583,-0.03411 -0.265149,-0.01933 -0.405008,-0.0098 0,0 -5e-7,0 -5e-7,0 -0.1700388,0.0062 -0.3235261,0.122259 -0.4447449,0.228634 -0.041993,0.04334 0.1614181,0.08121 0.5278808,0.146812 0.7015446,0.153387 1.2274389,0.523807 1.5909473,0.967217 0.423402,0.525233 0.5658604,1.097794 0.5563736,1.592213 -0.017038,0.638711 -0.2961406,1.094408 -0.5788806,1.360587 -0.7340872,0.682981 -1.2711052,0.204892 -1.3850519,-0.01211 -0.1454718,-0.277033 -0.1874518,-0.795121 -0.529854,-0.900964 -0.1334494,-0.04089 -0.3155216,-0.0267 -0.4266053,0.136561 -0.082165,0.125435 -0.137552,0.303019 -0.054966,0.520912 0.073999,0.183297 0.2037183,0.362636 0.4596698,0.475654 0.1285855,0.0441 0.088443,0.106071 -0.2072672,0.146812 -0.8043701,0.101453 -1.6904933,-0.01225 -2.5084449,-0.466016 0,0 -2.3e-6,-10e-7 -2.3e-6,-10e-7 C 2.2712083,91.778808 1.6339451,91.212063 1.184806,90.475428 0.4509349,89.175717 0.10230014,87.662115 0.36707659,86.254746 0.78077038,83.99734 1.7387812,82.241203 1.6810744,81.678281 1.7940474,81.169405 1.408779,80.189845 1.1761465,78.539531 c -1e-7,-10e-7 -2e-7,-2e-6 -2e-7,-2e-6 C 0.7961677,77.07915 0.37328286,74.858416 0.69884452,71.925086 1.0979699,69.506042 1.7848007,68.181079 1.6422819,67.987235 c 0.015179,-0.03777 0.003,-0.214054 -0.0076,-0.533505 -0.00812,-0.244808 -0.015152,-0.570156 -0.00816,-0.976568 C 1.787823,63.10693 2.7250121,60.514744 2.9451095,59.361468 3.1757607,58.358841 3.1772137,56.893437 3.2511732,55.358997 3.6019346,45.876172 5.817272,39.651261 7.7259415,39.748176 Z"
       id="path344"
       inkscape:path-effect="#path-effect346;#path-effect348"
       inkscape:original-d="m 7.7259415,39.748176 c -0.012962,5.129247 -0.00688,10.258655 -0.00688,15.387963 0,1.4497 0.28438,3.356565 0,4.778465 -0.4369824,2.184911 -0.7835505,4.38213 -1.1027227,6.616335 -0.083927,0.587491 0.1433423,1.264502 0,1.837872 -0.3592504,1.437003 -0.8001291,2.897921 -1.1027227,4.41089 -0.5556356,2.778178 0,7.327657 0,10.29208 0,1.891567 -0.5479087,5.707758 0,7.351485 0.038746,0.116237 0.2809361,-0.08664 0.3675742,0 0.02105,0.02106 0.3675743,1.820892 0.3675743,1.837873" />
    <path
       style="fill:#000000;stroke:none;stroke-width:0.264583px;stroke-linecap:butt;stroke-linejoin:miter;stroke-opacity:1"
       d="m 31.243812,90.055691 c -0.74451,-0.330323 0.378914,-3.761832 -0.424622,-9.137774 -0.149304,-0.93957 -0.426138,-2.375727 -0.351214,-4.072851 0.105992,-1.342527 0.364461,-2.399464 0.560057,-3.379377 0.474256,-2.463557 0.569271,-4.79953 0.800251,-8.102447 0.265899,-4.072769 0.677512,-9.046969 1.622239,-14.085388 0.312294,-1.655087 0.66403,-3.232101 0.91206,-4.729221 0.162983,-1.19241 0.316164,-2.16048 0.169735,-2.77795 -0.03439,-0.251996 -0.157824,-0.817392 -0.250211,-1.731059 -0.147949,-0.918561 -0.0341,-2.163766 0.470665,-3.676348 0,0 6e-6,-1.7e-5 6e-6,-1.7e-5 0.810485,-1.879041 2.141975,-3.252207 3.827257,-3.972971 1.798062,-0.765342 3.65768,-0.906947 5.386899,-0.424631 1.67342,0.473378 3.091156,1.323346 4.16312,2.46314 1.994095,2.280566 2.965458,4.811822 3.07196,7.107895 0.185424,2.18799 0.04837,3.917789 0.02112,5.264391 0.07054,1.273329 0.05008,2.206954 0.328868,2.523316 0,0 10e-7,10e-7 10e-7,10e-7 0.06401,0.256126 0.58946,0.876385 1.289335,2.04487 0.832311,1.115094 1.540588,2.912236 1.746201,5.375761 0,0 0,1.7e-5 0,1.7e-5 0.02464,0.884339 -0.03907,1.059297 -0.03455,0.5313 0,0 0,-10e-6 0,-10e-6 -0.143661,-0.593563 -0.215452,-0.897625 -0.295909,-0.921442 -0.03899,-0.02609 0.13077,0.142228 0.453667,0.549291 0.353236,0.384186 0.819691,1.036901 1.334476,1.991034 0,0 9e-6,1.6e-5 9e-6,1.6e-5 0.558972,0.970544 0.835027,2.310692 0.742783,3.970905 0,0 -4e-6,2.7e-5 -4e-6,2.7e-5 -0.09747,0.730509 -0.148076,0.911905 -0.09073,0.555489 0,0 7e-6,-1.6e-5 7e-6,-1.6e-5 0.197264,-0.41136 -0.02592,-1.264052 -0.62026,-2.611994 -0.889281,-1.027719 -1.194841,-1.418903 -0.988029,-1.11662 0.161185,0.09201 0.468597,0.346661 0.914046,0.772084 0.472659,0.424322 0.908451,1.128353 1.293066,2.111228 0.314056,1.330214 0.378845,2.209066 0.225499,2.621037 -0.04186,0.399074 -0.05222,0.321669 0.0028,-0.237558 0.01224,-0.05016 0.02138,-0.10235 0.02744,-0.156585 0.07034,-0.630055 -0.276072,-1.535719 -1.020608,-2.744099 -0.471455,-0.637686 -1.181242,-1.137539 -2.134058,-1.508346 -0.992122,-0.375547 -2.087405,-0.35001 -3.300096,0.07226 -1.41016,0.673611 -2.293289,1.546381 -2.659884,2.640518 -0.336662,1.019111 -0.430669,1.834876 -0.2743,2.458711 0,0 1.6e-5,6.5e-5 1.6e-5,6.5e-5 0.366402,1.167375 0.421621,1.47143 0.249796,0.930366 0,0 -9e-6,-2.8e-5 -9e-6,-2.8e-5 -0.580462,-1.355427 -0.762592,-2.637685 -0.574374,-3.787033 0.178491,-1.12528 0.498695,-2.046469 0.919815,-2.752667 0,0 9e-6,-1.4e-5 9e-6,-1.4e-5 0.854386,-1.383141 1.513184,-2.121835 1.752411,-2.369192 0.303966,-0.377787 0.551655,-0.794325 0.711961,-1.21273 0,0 10e-7,-3e-6 10e-7,-3e-6 0.378848,-0.801469 0.514596,-2.803828 1.533459,-5.556956 1.116987,-2.550095 2.423345,-4.25366 3.226316,-5.399536 0.383785,-0.60803 0.681051,-1.07366 0.810616,-1.436224 0.114818,-0.357965 0.210713,-0.588821 0.186138,-0.645167 0.07782,-0.09603 -0.42044,-1.414472 -0.527937,-3.930692 -0.06961,-1.327306 0.372002,-2.860087 1.378518,-4.447189 0,0 1.1e-5,-1.6e-5 1.1e-5,-1.6e-5 0.541787,-0.786378 1.297078,-1.464385 2.247037,-2.004811 0,0 2e-5,-1.2e-5 2e-5,-1.2e-5 0.96955,-0.548628 2.100676,-0.812977 3.347479,-0.775683 0.581914,-7.92e-4 1.298949,0.16774 2.135599,0.515857 0.871965,0.355477 1.666283,1.062071 2.35477,2.109291 0.695725,1.484917 0.915704,2.620867 0.714418,3.366918 0,0 -3e-6,2.4e-5 -3e-6,2.4e-5 -0.06241,0.453415 -0.192168,1.191322 -0.129755,0.737907 0,0 0,-7e-6 0,-7e-6 0.01411,-0.476133 -0.0038,-0.755986 -0.09764,-0.89006 0,0 -10e-7,-2e-6 -10e-7,-2e-6 -0.078,-0.121135 -0.05658,-0.102285 0.01799,0.06009 0.19063,0.310317 0.847313,1.08611 1.64209,2.466386 0.693956,1.437595 0.968957,2.470687 1.104998,2.987094 0.26884,0.460869 0.138562,0.578509 -0.127176,0.209218 0,0 -3e-6,-1e-6 -3e-6,-1e-6 -0.08164,-0.05552 0.106244,0.08147 0.53182,0.437118 0.483641,0.330456 1.000913,1.044699 1.506609,2.139055 0,0 1.1e-5,3.8e-5 1.1e-5,3.8e-5 0.341583,1.227514 0.416516,2.061653 0.283672,2.487826 0,0 -4e-6,1.3e-5 -4e-6,1.3e-5 -0.03193,0.417138 -0.06576,0.398824 -0.04713,-0.02779 -0.03294,-0.560538 -0.20286,-1.051649 -0.514129,-1.508728 0.08757,0.206669 0.09166,0.536777 -0.0098,0.962623 0.379082,0.85629 0.784507,1.722202 1.214347,2.543209 0,0 0,2e-6 0,2e-6 0.0076,0.230486 0.344339,0.740118 0.776626,1.552154 0.518802,0.812523 1.057331,1.997195 1.407023,3.552421 0.235012,1.116855 0.134532,1.665457 0.02704,1.077273 -0.130823,-0.183595 -0.05671,-0.09181 0.151602,0.297825 0.276393,0.368404 0.562755,1.091579 0.784668,2.153988 0.0682,0.978327 0.02446,1.537957 -0.04552,1.694992 0.03723,0.152403 -0.04001,-0.08448 -0.14545,-0.709161 -0.248164,-0.524668 -0.339176,-0.734067 -0.340071,-0.630402 0.0639,0.06951 0.317231,0.411045 0.700374,1.043959 0.415647,0.772592 0.61435,1.606104 0.60134,2.464332 0,0 -2e-6,5e-6 -2e-6,5e-6 -0.07826,0.208338 -0.37239,0.376441 -0.859813,0.475485 0.62476,0.199035 1.012066,0.545166 1.165181,0.969426 0.276866,1.452464 0.118735,2.046747 0.113633,1.875229 0,0 -10e-7,-10e-7 -10e-7,-10e-7 -0.09485,-0.06614 0.02242,0.112862 0.231075,0.545192 0.273608,0.42064 0.5836,1.134279 0.818629,2.124043 0.138212,1.240443 0.03563,1.971401 -0.05319,2.244873 -0.05494,0.35129 -0.09536,0.63147 -0.07244,0.837164 0.02385,0.205942 0.03778,0.383712 0.07141,0.466574 0.03811,0.04094 0.458605,0.448556 1.035862,1.260287 0.42942,0.842837 0.574011,1.512155 0.547798,1.980916 0.01967,0.47253 -0.02303,0.705549 -0.03522,0.742908 -0.07703,0.0722 0.0092,0.30961 0.131509,0.641696 0.15629,0.356708 0.433394,0.808264 0.706578,1.346252 2.419601,4.853349 -0.224256,7.503646 -0.857113,7.279559 -0.632857,-0.224086 -0.186354,-3.026492 -2.327411,-5.217973 -0.217648,-0.231835 -0.614451,-0.611306 -1.011329,-1.096047 -0.401868,-0.459564 -0.810852,-1.126149 -1.091174,-2.062045 -0.133403,-0.567562 -0.185388,-0.969236 -0.233215,-1.137221 -0.09251,-0.14637 -0.07205,-0.114722 0.01064,0.185299 0.194709,0.220741 0.05561,0.254863 -0.434438,-0.210007 -0.807064,-0.723278 -1.412771,-1.611063 -1.748519,-2.591048 -0.317016,-0.91523 -0.466372,-1.839522 -0.457956,-2.72155 -0.04153,-0.691188 0.01555,-0.954286 -0.05319,-0.695721 0.06335,0.188393 -0.03409,0.180508 -0.205428,-0.116316 -0.21918,-0.258436 -0.568482,-0.774903 -0.950311,-1.625331 0,0 -4e-6,-9e-6 -4e-6,-9e-6 -0.505693,-1.54317 -0.549638,-2.501214 -0.62151,-2.535666 -0.09558,-0.636103 -0.209461,-1.309528 -0.30512,-1.971165 -0.237852,-0.344454 -0.396029,-0.687358 -0.474339,-0.994802 0,-10e-7 -2e-6,-6e-6 -2e-6,-6e-6 -0.01301,0.349366 0.05317,0.670698 0.215866,0.994036 0.1647,0.245364 0.121678,0.258841 -0.09722,-0.02119 -0.278537,-0.23999 -0.635567,-0.818571 -1.012772,-1.770696 -0.247163,-1.094341 -0.289648,-1.835887 -0.197431,-2.176559 -0.01591,-0.329799 0.01307,-0.267054 0.0065,0.221795 0.139062,0.520181 0.165402,0.742771 0.1507,0.638611 -0.07945,-0.07809 -0.326855,-0.436957 -0.68473,-1.127393 -0.595673,-1.622684 -0.707624,-2.567772 -0.708107,-2.598464 0.02114,-0.04226 -0.248207,-0.32447 -0.61075,-0.942097 -0.416451,-0.566073 -1.023091,-1.454944 -1.616493,-2.775104 0,0 -4e-6,-9e-6 -4e-6,-9e-6 -0.106435,-0.564031 0.0416,-1.205783 0.479203,-1.867681 -0.522069,0.231604 -0.885091,0.248866 -1.056248,0.06742 -0.568231,-0.84252 -0.887456,-1.792369 -0.938007,-2.818965 0.0048,-0.798269 0.03775,-1.180257 0.04306,-1.135072 0,0 -3e-6,2e-6 -3e-6,2e-6 -0.096,0.0584 -0.01565,0.509253 0.193481,1.389684 0,0 7e-6,2.7e-5 7e-6,2.7e-5 0.380623,0.766624 0.657776,1.208213 0.874015,1.30901 0.157436,0.125445 0.05364,0.07336 -0.305873,-0.203129 0,0 -1.2e-5,-9e-6 -1.2e-5,-9e-6 -1.564651,-1.407881 -2.447009,-2.819955 -2.757283,-3.95667 -0.42124,-1.026408 -0.56368,-1.64084 -0.675785,-1.668798 -0.0097,-0.0831 -0.528836,-0.547681 -1.299993,-1.63974 -0.400023,-0.529858 -0.802193,-1.248034 -1.159649,-2.168328 0,0 -6e-6,-1.3e-5 -6e-6,-1.3e-5 -0.370512,-0.925817 -0.51945,-2.063324 -0.388803,-3.377289 0,0 2e-6,-1.9e-5 2e-6,-1.9e-5 0.07999,-0.576497 0.118549,-0.701584 0.05875,-0.374401 0,0 -2e-6,1.1e-5 -2e-6,1.1e-5 -0.164619,0.372583 0.02379,1.112014 0.52591,2.273805 0.541932,0.80261 1.10385,1.321598 1.715752,1.558229 0.577224,0.229562 1.008137,0.344997 1.304321,0.331775 0.631211,0.01051 1.141563,-0.09323 1.569109,-0.341273 0,0 9e-6,-5e-6 9e-6,-5e-6 0.411004,-0.241533 0.704793,-0.485299 0.89055,-0.764392 0,0 4e-6,-5e-6 4e-6,-5e-6 0.300177,-0.580649 0.463428,-0.848045 0.395122,-0.932456 -0.105002,-0.06861 0.424965,0.981537 0.64974,3.377252 0.07978,1.711178 -0.180163,3.263863 -0.693467,4.586609 -0.491123,1.298243 -1.071125,2.389877 -1.653579,3.294298 -1.082034,1.806314 -2.064117,2.966389 -2.251664,3.752026 -0.354685,0.756846 -0.430007,2.671975 -1.40713,5.470255 0,0 -4e-6,10e-6 -4e-6,10e-6 -0.535691,1.429282 -1.287547,2.75431 -2.228635,3.93331 -0.63063,0.840589 -0.973177,1.114019 -0.794954,0.958825 0,0 2e-6,-2e-6 2e-6,-2e-6 0.08419,-0.09438 0.150857,-0.349575 0.239515,-0.780047 0.09867,-0.4567 -0.0046,-1.014858 -0.287296,-1.736196 0,0 -3e-6,-1.5e-5 -3e-6,-1.5e-5 -0.05563,-0.295459 0.156645,0.262094 0.566204,1.698055 0,0 1.8e-5,7.8e-5 1.8e-5,7.8e-5 0.178834,0.760887 0.07841,1.720753 -0.309927,2.86886 -0.418217,1.223 -1.40132,2.208322 -2.940673,2.932954 -1.319169,0.46432 -2.536207,0.488368 -3.63655,0.07531 -1.061008,-0.408302 -1.865608,-0.980304 -2.408404,-1.707623 -0.875798,-1.373297 -1.271754,-2.495252 -1.20429,-3.337372 0.0058,-0.07249 0.01505,-0.142897 0.02771,-0.21121 0.06023,-0.787629 0.101659,-1.09157 0.09153,-0.918532 -0.121487,0.185001 -0.04545,0.827575 0.195814,1.940684 0.328727,0.816197 0.661128,1.372431 1.011388,1.670739 0.322953,0.299306 0.488753,0.448164 0.506207,0.439135 -0.08079,0.100234 -0.695448,-0.486968 -1.768812,-1.813482 -0.791764,-1.66829 -1.041747,-2.919531 -0.803882,-3.704361 0,0 9e-6,-3e-5 9e-6,-3e-5 0.09806,-0.730556 0.149668,-0.914525 0.09288,-0.55756 0,0 -2e-6,1.3e-5 -2e-6,1.3e-5 -9.75e-4,0.822976 0.05196,1.315173 0.238843,1.533737 0,0 3e-6,3e-6 3e-6,3e-6 0.139042,0.196175 0.09051,0.18382 -0.09146,-0.08308 -0.212787,-0.244008 -0.597314,-0.710568 -1.095309,-1.439997 -0.541023,-0.729558 -0.976516,-1.816709 -1.227938,-3.242643 0,0 -2e-6,-2.4e-5 -2e-6,-2.4e-5 -0.09045,-1.268038 -0.0487,-1.815066 -0.03455,-1.674116 0,0 0,3e-6 0,3e-6 0.172138,0.38923 -0.02705,0.274824 -0.26026,-0.364446 -0.378114,-0.600503 -1.091789,-1.622694 -1.850244,-3.242153 0,0 -4e-6,-1.2e-5 -4e-6,-1.2e-5 -0.991312,-2.582987 -1.193283,-4.895897 -1.041985,-6.724088 0.05589,-1.851584 0.251812,-3.223768 0.156985,-4.153395 -0.179154,-0.879365 -0.197385,-1.517232 -0.344861,-1.486221 -0.01839,-0.0066 0.02691,-0.0332 0.195382,0.02844 0.202863,0.0647 0.402172,1.44e-4 0.773774,-0.136549 0.375769,-0.143699 0.604834,-0.460806 0.886667,-1.032377 0,0 10e-7,-5e-6 10e-7,-5e-6 0.08441,-0.473073 0.144729,-0.569434 0.07737,-0.382801 -0.0107,0.205601 0.07856,0.739459 0.143091,1.591718 0.09812,2.118747 -0.193999,3.896496 -0.565415,5.308684 -0.411827,1.726935 -0.911304,3.414991 -1.293384,4.827702 -1.189002,4.3742 -2.06012,9.205792 -2.788653,13.115113 -0.577793,3.18356 -1.131122,5.972833 -2.140344,8.805974 -0.386636,1.104513 -0.759459,1.88222 -0.910242,2.501806 -0.24624,0.773235 -0.247941,2.089441 -0.351214,3.278639 -0.528201,6.701469 -3.355852,9.571255 -4.100362,9.240932 z"
       id="path350"
       inkscape:path-effect="#path-effect352;#path-effect354"
       inkscape:original-d="m 31.243812,90.055691 c 0.06276,-3.128071 1.631355,-6.091616 1.83787,-9.189355 0.0815,-1.222534 -0.135305,-2.45799 0,-3.675742 0.111577,-1.004187 0.527002,-1.951903 0.73515,-2.940595 0.533191,-2.532655 1.019836,-5.931625 1.470297,-8.454208 0.811777,-4.545959 2.205445,-8.970343 2.205445,-13.600247 0,-1.637705 1.102723,-3.013546 1.102723,-4.778465 0,-1.437304 0.02786,-2.684454 0.367575,-4.043317 0.259464,-1.037857 -0.259466,-2.27031 0,-3.308168 0.07621,-0.304847 0.730655,-2.20994 1.470295,-1.470297 2.701525,2.701523 4.964043,10.572231 6.616337,14.70297 0.66343,1.658575 1.99463,3.971245 2.57302,5.513615 0.129064,0.34417 -0.100981,0.749289 0,1.102722 0.436772,1.528696 1.689846,2.864091 2.205445,4.41089 0.116237,0.348713 -0.116237,0.754012 0,1.102722 0.109591,0.328769 0.580165,0.425183 0.73515,0.73515 0.452657,0.905317 -1.066972,-0.331821 0.367573,1.102723 0.173278,0.173276 -0.08374,-0.504854 0,-0.73515 0.450977,-1.240182 0.908401,-2.481715 1.470297,-3.675743 0.420613,-0.893802 1.103429,-1.655844 1.470298,-2.57302 0.631769,-1.579422 0.92706,-3.883906 1.470297,-5.513612 1.092856,-3.278574 3.311192,-6.257838 4.41089,-9.55693 0.242872,-0.728617 0.06594,-6.950942 1.470297,-6.248762 0.24505,0.122523 0.64851,0.107659 0.735148,0.367572 0.116239,0.348713 -0.08915,0.746125 0,1.102723 0.232349,0.929394 1.758976,3.462141 2.205447,4.410892 0.699942,1.487379 1.38987,2.983635 2.205445,4.41089 0.171937,0.300892 0.606441,0.413382 0.735148,0.73515 0.136514,0.341284 -0.116237,0.75401 0,1.102723 0.1397,0.419097 0.490101,0.735147 0.73515,1.102722 0.122523,0.735148 0.131892,1.498402 0.367572,2.205445 0.514954,1.54486 1.647529,2.923111 2.205448,4.410893 0.219366,0.584975 0.19594,1.237152 0.367572,1.837869 0.150535,0.526865 0.645068,0.929804 0.73515,1.470298 0.08057,0.483431 -0.134641,0.999056 0,1.470297 0.121362,0.42477 0.613786,0.67795 0.735148,1.102723 0.134641,0.471241 -0.06931,0.985123 0,1.470297 -0.624719,0.994934 0.561872,0.950468 0.73515,1.470295 0.208454,0.625372 0.06411,1.598528 0.367572,2.205448 0.582375,1.164746 0.917943,0.911974 1.102723,2.205445 0.06931,0.485172 -0.09612,0.989716 0,1.470297 0.05014,0.250709 1.026226,3.116924 1.102722,3.308168 0.128707,0.321765 0.62556,0.406381 0.73515,0.735147 0.214088,0.642268 0.153485,1.195607 0.367575,1.837873 0.274373,0.823124 1.288876,1.665912 1.470295,2.57302 0.41085,2.054243 0.73515,3.974221 0.73515,6.248762" />
    <path
       style="fill:#000000;stroke:none;stroke-width:0.264583px;stroke-linecap:butt;stroke-linejoin:miter;stroke-opacity:1"
       d="m 100.34777,39.330444 c 1.01316,0.02895 1.83285,2.61431 2.74343,6.905518 0.44642,1.862401 1.06647,5.032817 -0.006,8.846519 -0.26916,1.085095 -0.51262,1.433417 -0.23713,0.987045 -0.0384,-0.326312 0.18304,-0.186543 0.39118,0.931641 0.14329,0.515694 0.21468,1.234888 0.16226,2.16284 -0.0389,0.942086 -0.42298,1.988427 -1.20414,3.081469 -0.46962,0.545632 -0.71097,0.793084 -0.67583,0.758759 0.15924,-0.141789 0.26144,-0.151151 0.27,-0.13855 0.008,0.03495 0.0692,0.208341 0.11636,0.493152 0.0678,0.570642 0.60015,1.557504 1.14219,3.208915 1.69288,4.552571 2.11703,10.280688 -0.17254,15.907334 -0.0675,0.16587 -0.13719,0.331208 -0.2091,0.495981 -0.66225,1.505721 -1.20733,2.228254 -1.16285,2.402973 0,0 0,1e-6 0,1e-6 0.0129,0.06701 -0.0257,-0.02593 -0.0449,-0.318244 -0.0203,-0.339121 -0.26487,-0.687362 -0.71781,-1.179333 -0.39932,-0.309632 -0.69288,-0.474375 -0.948719,-0.499806 -0.240126,-0.0254 -0.336448,-0.03688 -0.324008,-0.0051 0.04824,0.09604 0.566797,-0.12844 1.534707,-0.382682 9.34773,-2.860518 17.70236,-1.567926 22.99073,0.431325 5.38582,2.03609 7.6477,4.62783 7.22804,5.532786 -0.46739,1.00789 -3.60391,0.479335 -8.4913,0.265721 -4.8627,-0.212534 -11.65948,-0.0016 -18.63151,2.757797 -0.71221,0.32382 -1.91772,0.763722 -3.68766,1.037239 -0.881801,0.119072 -1.896084,0.07477 -3.018051,-0.174181 -1.126834,-0.246302 -2.257667,-0.823598 -3.324401,-1.750666 -1.325011,-1.298712 -2.119463,-2.779264 -2.350198,-4.305387 -0.226924,-1.463452 -0.156685,-2.774787 0.154924,-3.874736 0,0 2e-6,-6e-6 2e-6,-6e-6 0.636027,-2.13342 1.375634,-3.446605 1.739984,-4.147144 0.0389,-0.07353 0.07651,-0.148039 0.11287,-0.22351 1.216751,-2.525873 0.959134,-6.02553 0.240645,-9.103375 -0.349323,-1.174078 -0.887386,-2.795403 -1.143725,-5.023933 -0.119661,-1.1556 -0.01628,-2.43008 0.340855,-3.757105 0.369479,-1.39469 1.168026,-2.707997 2.331422,-3.828708 0.285865,-0.278755 0.310031,-0.252827 0.0593,0.02361 -0.379828,0.599263 -0.551024,1.022483 -0.51776,1.343972 0.02102,0.295197 0.02746,0.378559 0.05994,0.279047 -0.03374,-0.222776 -0.210194,-1.163587 -0.192875,-2.798554 0.365635,-2.057292 0.934961,-3.097752 1.233169,-3.423843 0.91736,-1.147529 1.125675,-3.897106 1.464694,-5.856452 0.658391,-4.534394 1.730272,-7.09126 2.743433,-7.062308 z"
       id="path356"
       inkscape:path-effect="#path-effect358;#path-effect360"
       inkscape:original-d="m 100.34777,39.330444 c -0.16668,2.314075 0.19266,4.672 0,6.983913 -0.19771,2.372566 -0.34669,5.020746 -0.735147,7.351485 -0.108122,0.648734 -0.627028,1.55671 -0.73515,2.205445 -0.184205,1.105244 0.355267,2.609942 0,3.675742 -0.05479,0.164383 -0.325548,0.199472 -0.367572,0.367575 -0.495038,1.980147 0,5.926201 0,8.086632 0,4.467072 -0.367575,8.425797 -0.367575,12.8651 0,0.327023 -0.929905,6.42158 -0.73515,6.616335 0.478205,0.478205 5.045714,0 5.146044,0 9.64871,0 19.02958,1.470297 28.67079,1.470297" />
    <path
       style="fill:#000000;stroke:none;stroke-width:0.264583px;stroke-linecap:butt;stroke-linejoin:miter;stroke-opacity:1"
       d="m 173.86262,41.168317 c -0.2906,1.114003 -5.31953,0.372177 -12.26367,2.629424 0,0 0,0 0,0 -0.95211,0.311554 -2.28967,0.795028 -3.83287,1.120014 -0.9056,0.03961 -1.8508,-0.129232 -2.79121,-0.564932 -0.22307,1.042596 -0.85614,1.652223 -1.81193,1.666816 -1.21262,0.138638 -1.79707,0.116432 -1.66219,0.12456 0.37338,-0.151826 -0.11719,0.299354 -1.32769,0.685687 -2.6796,0.942425 -5.32924,1.118083 -7.68614,0.863559 -0.55996,0.04416 -0.5212,-0.03705 0.1333,-0.04627 0.63087,-0.187761 1.05927,-0.424339 1.33558,-0.81137 0.24979,-0.359242 0.39481,-0.623082 0.41275,-0.862049 -0.068,-0.422069 0.10817,-0.441646 0.23349,-0.0313 0.22995,0.385129 0.82201,1.065841 1.56782,2.239297 0.83723,1.127627 1.48585,2.876101 1.60462,5.224906 0,0 0,1.2e-5 0,1.2e-5 -0.0489,1.05367 -0.14235,1.61807 -0.14393,1.681824 0.1208,0.03633 -0.003,-0.357187 -0.25939,-1.281134 0,0 -1e-5,-1e-5 -1e-5,-1e-5 -0.52064,-0.825639 -0.15668,-0.525874 0.73973,1.053661 0.655,1.513224 0.82921,2.932936 0.54794,4.170146 -0.25855,1.188862 -0.64377,2.126696 -1.10124,2.799651 -0.86197,1.332358 -1.42398,1.879405 -1.32225,1.831406 0.0674,-0.03005 0.1302,-0.269938 0.24625,-0.736997 0.13395,-0.509827 -0.006,-1.141214 -0.39281,-1.989994 0,0 -1e-5,-10e-6 -1e-5,-10e-6 -0.21811,-0.408102 -0.54824,-0.777098 -0.99883,-1.124047 0,0 -2e-5,-8e-6 -2e-5,-8e-6 -0.45789,-0.349271 -1.0125,-0.573825 -1.6844,-0.687038 -0.68211,-0.109629 -1.37626,-0.01461 -2.11341,0.285017 -0.74491,0.3125 -1.34705,0.841996 -1.83748,1.610765 0,0 -1e-5,2e-5 -1e-5,2e-5 -0.26845,0.546215 -0.35579,0.678796 -0.21459,0.388732 0,0 1e-5,-10e-6 1e-5,-10e-6 0.0495,-0.339905 0.4515,-1.01149 1.23573,-1.988055 0,0 4e-5,-3.3e-5 4e-5,-3.3e-5 0.85671,-0.838898 1.74696,-1.363761 2.64851,-1.572526 0,0 4e-5,-8e-6 4e-5,-8e-6 0.87523,-0.206913 1.62387,-0.259453 2.23542,-0.167334 1.19091,0.216585 1.80481,0.401692 1.85203,0.465768 0.11848,0.06459 0.30957,0.09662 0.56203,0.113784 0.23916,0.01626 0.53362,0.01915 0.86782,0.02398 0.70144,-0.01236 1.62097,-0.17639 2.73397,-0.340524 2.7887,-0.579254 6.31069,-0.833902 10.24498,0.272703 2.04635,0.635963 3.9656,1.901208 5.52129,3.736715 1.63694,1.940802 2.42206,4.484355 2.20767,7.221972 0.0492,0.247126 -0.005,-0.130609 -0.11232,-1.133428 -0.27575,-0.924506 -0.64127,-1.579838 -1.11525,-1.979545 0,0 -2e-5,-1.5e-5 -2e-5,-1.5e-5 -0.44639,-0.388117 -0.77639,-0.621109 -1.00442,-0.69437 0,0 0,-3e-6 0,-3e-6 -0.43196,-0.164554 -0.18042,-0.0949 0.69292,0.297405 0,0 2e-5,1e-5 2e-5,1e-5 1.59477,0.90741 2.6079,2.060213 3.0464,3.321705 0,0 0,1.4e-5 0,1.4e-5 0.43777,1.209892 0.59488,2.21943 0.54703,2.994469 0.0311,1.513451 -0.22307,2.096519 -0.18644,1.620791 0,0 0,-2e-6 0,-2e-6 -0.16378,-0.347862 0.27206,0.477641 0.67868,2.475087 0.22369,1.075587 -0.0207,2.394599 -0.76027,3.849569 -0.41262,0.723268 -1.0348,1.353199 -1.85078,1.870726 -0.83805,0.526967 -1.83311,0.779578 -2.95074,0.750333 -0.37101,-0.02709 -0.46246,-0.04099 -0.28208,-0.0302 0.18902,0.05351 0.63899,-0.0096 1.35157,-0.176217 0,0 5e-5,-1.7e-5 5e-5,-1.7e-5 1.00327,-0.377192 1.69508,-0.906364 2.09299,-1.603806 0,0 1e-5,-3.2e-5 1e-5,-3.2e-5 0.37768,-0.666417 0.56727,-1.237773 0.56783,-1.728698 -0.0734,-0.942518 -0.0943,-1.310074 -0.13326,-1.124852 0.13841,0.16247 0.25243,0.895517 0.27355,2.173856 -0.0271,0.664294 -0.28079,1.399391 -0.76134,2.190737 -0.50416,0.826957 -1.34131,1.445812 -2.49263,1.841152 0,0 -5e-5,1.2e-5 -5e-5,1.2e-5 -0.81887,0.180572 -1.36591,0.230842 -1.6401,0.164775 -0.26872,-0.01987 -0.25216,-0.02893 0.0428,-0.01487 1.13379,-0.09669 1.89403,-0.412289 2.35464,-0.989619 0.42021,-0.527797 0.63869,-0.901352 0.65302,-1.169221 0.0219,-0.496459 0.0481,-0.114205 -0.17752,0.996989 -0.35485,1.553913 -1.17631,2.819722 -2.3176,3.725232 -1.17914,0.92035 -2.51789,1.385721 -3.87592,1.432414 -0.59065,0.02238 -0.74924,-0.02269 -0.53678,-0.0453 0,0 1e-5,-10e-7 1e-5,-10e-7 0.11364,-0.01266 0.30969,-0.08504 0.59127,-0.205033 0.29564,-0.120749 0.60407,-0.371763 0.94078,-0.74485 0,0 1e-5,-1.1e-5 1e-5,-1.1e-5 0.29511,-0.440781 0.42243,-0.641224 0.36782,-0.635091 -0.0103,0.03249 -0.14491,0.316135 -0.42501,0.822518 -0.82631,1.19698 -1.83013,1.88342 -2.88993,2.099272 -1.03247,0.214732 -1.88749,0.189433 -2.54894,-0.0023 -1.35248,-0.371883 -1.89049,-0.744695 -1.9323,-0.786806 -0.0443,-0.272856 -1.20168,-0.07261 -2.82511,-0.292837 -0.69344,-0.07947 -1.43231,-0.307323 -2.16432,-0.682011 -0.79385,-0.400165 -1.4636,-1.063412 -1.95365,-1.894917 -0.24165,-0.46945 -0.31934,-0.730403 -0.31457,-0.792085 -0.0409,-0.03529 0.14493,0.0585 0.42528,0.270001 0.42455,0.122157 0.48012,0.15169 0.29035,0.03178 -0.23396,-0.02555 -0.74998,-0.176602 -1.43349,-0.506925 -0.685,-0.478373 -1.01326,-0.892883 -1.1258,-1.181582 -0.17291,-0.265872 -0.12699,-0.364362 -0.0267,-0.315365 0.15358,-0.0041 0.11742,-0.0568 -0.003,-0.160192 -0.13643,-0.08986 -0.43984,-0.19273 -0.74701,-0.317177 -2.1155,-0.878223 -1.72584,-2.287969 -1.58977,-2.397828 0.35509,-0.286701 1.22219,0.07524 2.08597,-0.192372 0.13827,-0.03758 0.3846,-0.09705 0.76725,-0.100798 0.35141,-0.02097 0.82756,0.05945 1.42294,0.358579 0.52377,0.339637 0.86994,0.650049 1.04213,0.825786 0.19952,0.107492 0.21174,0.112314 0.0109,-0.117288 -0.23482,-0.101827 -0.2493,-0.208517 0.0493,-0.177807 0.30445,-0.06486 0.88256,0.0291 1.7481,0.437815 0.6562,0.457948 1.09024,0.913254 1.27473,1.288339 0.21288,0.323601 0.30464,0.479837 0.30628,0.395023 -0.0488,-0.13666 -0.03,-0.232354 -0.0224,-0.267929 0.0232,-0.02855 0.13141,-0.08018 0.31533,-0.103555 0.36251,-0.06999 1.64198,-0.500346 3.79123,-0.292837 1.22145,0.22818 1.88313,0.50842 1.8726,0.394362 -0.0178,-0.0684 -0.18817,-0.06819 -0.57307,-0.03532 -0.42825,0.03838 -0.83358,0.333786 -1.31922,0.951149 -0.141,0.269622 -0.18329,0.294164 -0.0892,0.06988 0.0484,-0.247311 0.29257,-0.70222 0.7672,-1.352743 0,0 1e-5,-1.6e-5 1e-5,-1.6e-5 0.50546,-0.570262 1.03378,-0.972565 1.56861,-1.199662 0.51883,-0.225474 0.97035,-0.360035 1.3433,-0.408697 0,0 1e-5,-2e-6 1e-5,-2e-6 0.7295,-0.09424 1.08569,-0.107614 1.02396,-0.12197 -0.16812,-0.03642 -0.31434,-0.0238 -0.54826,0.09937 -0.22833,0.135171 -0.37623,0.30598 -0.49922,0.647387 -0.0501,0.201587 -0.10252,-0.289637 0.17306,-1.697024 0.13639,-0.70172 0.55838,-1.49784 1.29763,-2.350683 0.77645,-0.899139 1.97579,-1.434411 3.56489,-1.52504 0.41852,0.01573 0.55644,0.02431 0.41133,0.01292 -0.15145,-0.05766 -0.57287,-0.0085 -1.27349,0.136997 0,0 -4e-5,1e-5 -4e-5,1e-5 -0.98363,0.345561 -1.67656,0.846729 -2.08435,1.526933 -0.38449,0.645072 -0.58769,1.206511 -0.60075,1.695717 0.049,0.930558 0.0514,1.318781 0.0778,1.148092 -0.14977,-0.146363 -0.28471,-0.856499 -0.33244,-2.150189 0.0134,-0.665414 0.25174,-1.410977 0.72433,-2.2251 0,0 2e-5,-3.9e-5 2e-5,-3.9e-5 0.49248,-0.844625 1.32679,-1.493421 2.49767,-1.922794 0,0 5e-5,-2e-5 5e-5,-2e-5 0.83022,-0.203282 1.40584,-0.269326 1.71811,-0.207832 0.30411,0.0188 0.33339,0.02332 0.0865,0.0014 -0.75316,-0.0141 -1.38071,0.133366 -1.90624,0.467308 -0.50555,0.325787 -0.8711,0.679504 -1.09899,1.085211 -0.37381,0.82609 -0.54164,1.374754 -0.42231,1.720622 0.21929,0.614006 -0.23284,0.06223 -0.72043,-1.678902 0,0 0,-1e-5 0,-1e-5 -0.35359,-2.094174 -0.2544,-3.334515 -0.24615,-3.528639 -0.0598,-0.08069 -0.0111,0.05673 0.0891,0.468879 0,0 1e-5,5e-6 1e-5,5e-6 0.10492,0.473339 0.54185,0.911616 1.35861,1.439808 0,0 1e-5,6e-6 1e-5,6e-6 0.47682,0.197831 0.23855,0.151735 -0.59518,-0.202546 0,0 -1e-5,-6e-6 -1e-5,-6e-6 -0.43618,-0.171176 -0.96552,-0.526723 -1.57651,-1.076484 0,0 -2e-5,-2.2e-5 -2e-5,-2.2e-5 -0.6381,-0.560881 -1.13246,-1.418573 -1.46051,-2.56777 -0.16303,-1.241861 -0.18464,-1.870596 -0.11232,-1.868574 0.032,0.1143 -0.13999,-0.05657 -0.24132,-0.208617 -0.13357,-0.198013 -0.58481,-0.382447 -1.12327,-0.57751 -1.09871,-0.512997 -3.00321,-0.05221 -5.65651,0.255137 -1.06474,0.19063 -2.36667,0.404102 -3.90075,0.488975 -0.74719,0.05187 -1.54842,0.03482 -2.39224,-0.06795 -0.88868,-0.108242 -1.81846,-0.310829 -2.77585,-0.623786 -0.45413,-0.110875 -0.30992,-0.124733 0.35502,0.03247 0.35251,0.06344 0.83628,0.02004 1.4603,-0.1191 0,0 3e-5,-5e-6 3e-5,-5e-6 0.64996,-0.140886 1.30258,-0.53713 1.98006,-1.187474 0,0 3e-5,-2.5e-5 3e-5,-2.5e-5 0.5943,-0.776744 0.87914,-1.191454 0.82905,-1.274809 0,0 1e-5,-10e-7 1e-5,-10e-7 0.0395,-0.029 -0.13062,0.35978 -0.54306,1.145769 0,0 -2e-5,2.8e-5 -2e-5,2.8e-5 -0.69467,1.107812 -1.61263,1.905339 -2.71942,2.375519 -1.10003,0.457747 -2.20184,0.601164 -3.27472,0.435538 -1.06376,-0.169368 -1.99298,-0.553604 -2.76959,-1.135816 0,0 -10e-6,-1.5e-5 -10e-6,-1.5e-5 -0.77021,-0.580547 -1.36426,-1.255849 -1.77689,-2.007459 0,0 -1e-5,-1.9e-5 -1e-5,-1.9e-5 -0.77743,-1.538572 -1.0216,-2.997798 -0.77758,-4.287856 0.22684,-1.252219 0.60643,-2.235019 1.07766,-2.94194 0.91706,-1.414679 1.51674,-1.98659 1.48959,-1.985482 -0.0358,5.89e-4 -0.0824,0.208065 -0.19622,0.622051 -0.13559,0.457107 -0.0223,1.048386 0.29093,1.851696 0.51907,0.793068 0.15655,0.457275 -0.73055,-1.151783 0,0 -1e-5,-1.8e-5 -1e-5,-1.8e-5 -0.62772,-1.713243 -0.76765,-3.014589 -0.55794,-3.838442 0.0875,-0.798006 0.185,-1.102176 0.15462,-0.9069 0,0 0,2e-6 0,2e-6 0.15674,0.410579 0.0262,0.352236 -0.11044,-0.148409 -0.24764,-0.478703 -0.85387,-1.296548 -1.54899,-2.551759 -0.82855,-1.286365 -1.30554,-3.170821 -1.17581,-5.476705 0.11976,-1.193449 0.59403,-2.386939 1.40743,-3.50614 0.84823,-1.158175 2.09532,-1.982269 3.64147,-2.406507 1.62876,-0.257907 2.65105,-0.201159 3.0739,-0.04627 1.78084,0.223979 3.11329,0.429217 4.07622,0.128409 0.46746,-0.189384 1.74464,-0.63382 3.81835,-0.784609 0.90528,-0.0035 1.0096,0.105912 0.54325,0.12456 -0.0465,-0.138213 0.14245,-0.08315 0.39353,0.196522 1.59604,-0.102798 3.1291,-0.2975 4.56027,-0.564932 0.93737,-0.0048 2.27996,-0.222904 3.51861,-0.350286 0,0 0,0 0,0 9.00886,-0.944163 13.75713,2.250571 13.46653,3.364574 z"
       id="path362"
       inkscape:path-effect="#path-effect364;#path-effect366"
       inkscape:original-d="m 173.86262,41.168317 c -4.28102,0.55255 -8.58187,-0.938673 -12.8651,-0.367575 -1.23855,0.165139 -2.43479,0.589153 -3.67574,0.73515 -0.59062,0.06948 -2.70745,-0.193659 -3.67574,0 -2.54427,-1.539531 -0.68363,0.595447 -1.10273,0.735147 -0.34871,0.116237 -0.74228,-0.07209 -1.10272,0 -0.87467,0.174935 -1.69834,0.560213 -2.57302,0.735148 -1.4616,0.292319 -4.22717,0.367575 -5.88118,0.367575 -0.49011,0 -1.12375,-0.346551 -1.4703,0 -0.8981,0.898093 1.22816,8.713851 1.4703,9.924505 0.5146,2.57302 -1.28651,-2.57302 0,2.57302 0.10714,0.42858 0.61378,0.677949 0.73514,1.102722 0.25198,0.881907 -0.33938,6.276956 0,6.616337 0.54665,0.546648 0.32988,-0.716298 0.36758,-0.73515 0.43835,-0.219178 0.98019,0 1.4703,0 2.08338,0 4.58174,-0.406916 6.61633,0 3.00149,0.6003 10.14379,3.527454 12.49752,5.88119 0.0866,0.08664 -0.0866,0.280935 0,0.367573 0.89277,0.892765 0.53976,-0.109305 1.10273,0.73515 0.98741,1.481111 1.10272,3.07944 1.10272,4.778465 0,1.224105 0.14094,2.658713 -0.36757,3.675742 -0.0548,0.109591 -0.28094,-0.08664 -0.36758,0 -0.77904,0.779045 -0.0361,0.843373 -0.36757,1.83787 -0.0387,0.116239 -0.28094,-0.08664 -0.36758,0 -0.63532,0.63532 -0.24884,1.636194 -1.10272,2.205448 -0.856,0.570666 -1.67049,1.754179 -2.57302,2.205445 -0.3089,0.154453 -1.25667,0.15395 -1.4703,0.367575 -0.19373,0.193728 -0.13961,0.583173 -0.36757,0.735147 -0.59083,0.393885 -2.89955,0 -3.67574,0 -0.75808,0 -2.51415,0.264673 -3.30817,0 -0.38765,-0.129217 -1.95872,-0.938239 -2.20545,-1.102722 -0.0499,-0.03329 -0.67888,-1.074592 -0.73515,-1.102723 -0.45184,-0.225925 -1.01844,-0.14165 -1.47029,-0.367575 -0.46495,-0.232473 -0.60957,-0.938339 -1.10273,-1.102722 -0.64375,-0.214585 -0.9189,1.8e-5 -1.47029,-0.367575 -0.71571,-0.477139 -0.92895,-2.011643 -1.83787,-1.102723" />
  </g>
</svg>
